<?xml version="1.0" encoding="utf-8"?>
<!-- Generator: Adobe Illustrator 19.0.0, SVG Export Plug-In . SVG Version: 6.00 Build 0)  -->
<svg version="1.1" id="Layer_1" xmlns="http://www.w3.org/2000/svg" xmlns:xlink="http://www.w3.org/1999/xlink" x="0px" y="0px"
	 viewBox="-49 141 512 512" style="enable-background:new -49 141 512 512;" xml:space="preserve">
<style type="text/css">
	.st0{fill:#40728E;}
	.st1{fill:#77B5D8;}
	.st2{fill:#E8C262;}
</style>
<g>
	<polyline class="st0" points="366,289.4 419,289.4 419,561.2 48,561.2 48,508.3 	"/>
	<rect x="-5" y="236.5" class="st1" width="371" height="271.9"/>
	<g>
		<path class="st2" d="M366,412.4L366,412.4L270.1,342l-86,77.1L87.8,342l0,0l0,0L-5,434.7l0,0l0,0v73.6h371V412.4L366,412.4z
			 M184.1,419.1L184.1,419.1L184.1,419.1L184.1,419.1z"/>
		<circle class="st2" cx="219.3" cy="297" r="27.3"/>
	</g>
	<path d="M419,275.5h-12.8c-6.6,0-12,5.4-12,12c0,6.6,5.4,12,12,12h0.8v247.8H60v-28.9H366c6.6,0,12-5.4,12-12V234.6
		c0-6.6-5.4-12-12-12H120.4c-6.6,0-12,5.4-12,12c0,6.6,5.4,12,12,12H354v140.1l-76.8-56.3c-4.6-3.4-10.9-3.1-15.1,0.7l-78.4,70.3
		l-88.4-70.7c-4.8-3.8-11.7-3.4-16,0.9L7.1,403.9V246.6h73.2c6.6,0,12-5.4,12-12c0-6.6-5.4-12-12-12H-5c-6.6,0-12,5.4-12,12v271.9
		c0,6.6,5.4,12,12,12h40.9v40.9c0,6.6,5.4,12,12,12h371c6.6,0,12-5.4,12-12V287.5C431,280.9,425.6,275.5,419,275.5z M270.8,355.6
		l83.2,61v77.8h-54.1l-97.2-77.7L270.8,355.6z M7.1,437.9l81.6-81.6l172.7,138.2H48c0,0,0,0,0,0s0,0,0,0H7.1L7.1,437.9L7.1,437.9
		L7.1,437.9z"/>
	<path d="M258.6,295.2c0-21.7-17.6-39.3-39.3-39.3S180,273.5,180,295.2s17.6,39.3,39.3,39.3C241,334.5,258.6,316.8,258.6,295.2z
		 M204.1,295.2c0-8.4,6.8-15.2,15.2-15.2s15.2,6.8,15.2,15.2s-6.8,15.2-15.2,15.2C210.9,310.4,204.1,303.6,204.1,295.2z"/>
</g>
</svg>
