<?xml version="1.0" encoding="utf-8"?>
<!-- Generator: Adobe Illustrator 19.0.0, SVG Export Plug-In . SVG Version: 6.00 Build 0)  -->
<svg version="1.1" id="Layer_1" xmlns="http://www.w3.org/2000/svg" xmlns:xlink="http://www.w3.org/1999/xlink" x="0px" y="0px"
	 viewBox="-49 141 512 512" style="enable-background:new -49 141 512 512;" xml:space="preserve">
<style type="text/css">
	.st0{fill:#93C93F;}
	.st1{fill:#89B240;}
</style>
<g>
	<path class="st0" d="M398.9,339.9c0,127-79.8,235.3-191.9,277.7c-14.5-5.5-28.5-12.1-41.8-19.7c-89.6-51.1-150.1-147.5-150.1-258
		c0-42,8.8-82,24.5-118.2L207,181.3l117.4,28.3l50,12C390.1,257.9,398.9,297.8,398.9,339.9z"/>
	<path class="st1" d="M398.9,339.9c0,127-79.8,235.3-191.9,277.7V181.3l117.4,28.3l50,12C390.1,257.9,398.9,297.8,398.9,339.9z"/>
	<path d="M207,631c-1.9,0-3.8-0.3-5.6-1C142.6,607.7,92.3,568.7,56,517.1C18.8,464.4-0.8,402.2-0.8,337.4
		c0-43.2,8.7-85.1,25.9-124.5c2-4.6,6-7.9,10.8-9.1l167.4-40.4c2.4-0.6,5-0.6,7.4,0l167.4,40.4c4.8,1.2,8.9,4.5,10.8,9.1
		c8.4,19.4,14.9,39.6,19.2,60.3c1.8,8.6-3.7,17-12.3,18.8c-8.6,1.8-17-3.7-18.8-12.3c-3.4-16-8.1-31.7-14.2-46.9L207,195.2
		L51.2,232.8c-13.4,33.3-20.2,68.5-20.2,104.7c0,58.2,17.6,114,51,161.4c31.5,44.7,74.6,78.9,125,99.2c50.4-20.3,93.6-54.5,125-99.2
		c33.4-47.4,51-103.2,51-161.4c0-8.8,7.1-15.9,15.9-15.9s15.9,7.1,15.9,15.9c0,64.8-19.6,126.9-56.8,179.7
		c-36.3,51.6-86.6,90.6-145.4,112.8C210.8,630.7,208.9,631,207,631z"/>
	<path d="M197.5,487.5c-5.4,0-10.4-2.7-13.4-7.3l-61.2-95.6c-4.7-7.4-2.6-17.2,4.8-21.9c7.4-4.7,17.2-2.6,21.9,4.8l45.6,71.3
		L257.9,304c3.7-8,13.1-11.4,21.1-7.7c8,3.7,11.4,13.1,7.7,21.1l-74.8,160.9c-2.4,5.3-7.6,8.8-13.3,9.1
		C198.2,487.5,197.8,487.5,197.5,487.5z"/>
</g>
</svg>
